<svg width="294" height="307" viewBox="0 0 294 307" fill="none" xmlns="http://www.w3.org/2000/svg">
<path d="M173.12 81C177.173 85.0533 179.2 90.28 179.2 96.68C179.2 102.013 178.027 107.453 175.68 113L93.76 305L90.24 306.6L9.6 81H36.8L103.68 270.44L171.84 113C174.187 107.667 175.36 102.12 175.36 96.36C175.36 90.6 173.76 86.12 170.56 82.92L173.12 81Z" fill="url(#paint0_linear_13_38)" fill-opacity="0.15"/>
<path d="M269.48 14.44C250.067 6.97332 231.72 3.23999 214.44 3.23999C197.373 3.23999 184.04 6.86666 174.44 14.12C164.84 21.3733 160.04 31.4 160.04 44.2C160.04 59.7733 168.147 71.8267 184.36 80.36C191.613 83.9867 199.507 87.4 208.04 90.6C216.787 93.5867 225.533 97 234.28 100.84C243.027 104.68 251.027 109.053 258.28 113.96C265.533 118.867 271.4 125.693 275.88 134.44C280.36 142.973 282.6 153.96 282.6 167.4C282.6 180.627 278.867 191.933 271.4 201.32C263.933 210.707 254.867 217.107 244.2 220.52C233.747 223.72 221.48 225.32 207.4 225.32C181.16 225.32 158.76 218.813 140.2 205.8L141.8 203.24C148.84 208.787 157.907 213.373 169 217C180.307 220.413 191.827 222.12 203.56 222.12C220.84 222.12 235.56 218.173 247.72 210.28C260.093 202.173 266.28 190.333 266.28 174.76C266.28 157.693 258.173 144.36 241.96 134.76C234.707 130.493 226.707 126.547 217.96 122.92C209.427 119.293 200.787 115.56 192.04 111.72C183.293 107.667 175.293 103.187 168.04 98.28C151.827 87.6133 143.72 72.4667 143.72 52.84C143.72 37.2667 148.947 24.68 159.4 15.08C169.853 5.26666 185.533 0.359993 206.44 0.359993C227.56 0.359993 249 3.98666 270.76 11.24L269.48 14.44Z" fill="url(#paint1_linear_13_38)" fill-opacity="0.15"/>
<defs>
<linearGradient id="paint0_linear_13_38" x1="2.45455" y1="157" x2="195.635" y2="179.161" gradientUnits="userSpaceOnUse">
<stop stop-color="#001E36"/>
<stop offset="1" stop-color="#33B5FF"/>
</linearGradient>
<linearGradient id="paint1_linear_13_38" x1="131.143" y1="77" x2="300.315" y2="93.9428" gradientUnits="userSpaceOnUse">
<stop stop-color="#001E36"/>
<stop offset="1" stop-color="#33B5FF"/>
</linearGradient>
</defs>
</svg>
