<svg width="43" height="47" viewBox="0 0 43 47" fill="none" xmlns="http://www.w3.org/2000/svg">
<path d="M24.968 12.4C25.576 13.008 25.88 13.792 25.88 14.752C25.88 15.552 25.704 16.368 25.352 17.2L13.064 46L12.536 46.24L0.440002 12.4H4.52L14.552 40.816L24.776 17.2C25.128 16.4 25.304 15.568 25.304 14.704C25.304 13.84 25.064 13.168 24.584 12.688L24.968 12.4Z" fill="#33B5FF"/>
<path d="M40.072 2.41595C37.16 1.29595 34.408 0.735955 31.816 0.735955C29.256 0.735955 27.256 1.27995 25.816 2.36795C24.376 3.45596 23.656 4.95996 23.656 6.87996C23.656 9.21596 24.872 11.024 27.304 12.304C28.392 12.848 29.576 13.36 30.856 13.84C32.168 14.288 33.48 14.8 34.792 15.376C36.104 15.952 37.304 16.608 38.392 17.344C39.48 18.08 40.36 19.104 41.032 20.416C41.704 21.696 42.04 23.344 42.04 25.36C42.04 27.344 41.48 29.04 40.36 30.448C39.24 31.856 37.88 32.816 36.28 33.328C34.712 33.808 32.872 34.048 30.76 34.048C26.824 34.048 23.464 33.072 20.68 31.12L20.92 30.736C21.976 31.568 23.336 32.256 25 32.8C26.696 33.312 28.424 33.568 30.184 33.568C32.776 33.568 34.984 32.976 36.808 31.792C38.664 30.576 39.592 28.8 39.592 26.464C39.592 23.904 38.376 21.904 35.944 20.464C34.856 19.824 33.656 19.232 32.344 18.688C31.064 18.144 29.768 17.584 28.456 17.008C27.144 16.4 25.944 15.728 24.856 14.992C22.424 13.392 21.208 11.12 21.208 8.17595C21.208 5.83996 21.992 3.95196 23.56 2.51196C25.128 1.03996 27.48 0.303955 30.616 0.303955C33.784 0.303955 37 0.847955 40.264 1.93595L40.072 2.41595Z" fill="#33B5FF"/>
</svg>
